<svg fill="none" height="24" viewBox="0 0 24 24" width="24" xmlns="http://www.w3.org/2000/svg"><path d="m13 9 2 6 2-6m-7 6c-.93188 0-1.39782 0-1.76537-.1522-.49005-.203-.8794-.5924-1.08239-1.0824-.15224-.3676-.15224-.8335-.15224-1.7654s0-1.3978.15224-1.7654c.20299-.49002.59234-.87937 1.08239-1.08236.36755-.15224.83349-.15224 1.76537-.15224m-2.8 11h9.6c1.1201 0 1.6802 0 2.108-.218.3763-.1917.6823-.4977.874-.874.218-.4278.218-.9879.218-2.108v-9.6c0-1.1201 0-1.68016-.218-2.10798-.1917-.37633-.4977-.68229-.874-.87403-.4278-.21799-.9879-.21799-2.108-.21799h-9.6c-1.1201 0-1.68016 0-2.10798.21799-.37633.19174-.68229.4977-.87403.87403-.21799.42782-.21799.98787-.21799 2.10798v9.6c0 1.1201 0 1.6802.21799 2.108.19174.3763.4977.6823.87403.874.42782.218.98787.218 2.10798.218z" stroke="#000" stroke-linecap="round" stroke-linejoin="round" stroke-width="2"/></svg>